<?xml version="1.0" encoding="UTF-8" standalone="no"?>
<!-- Created with Inkscape (http://www.inkscape.org/) -->

<svg
   width="3840"
   height="2160"
   viewBox="1 1 1016 571.5"
   version="1.1"
   id="svg5"
   inkscape:version="1.1 (ce6663b3b7, 2021-05-25)"
   sodipodi:docname="bg3.svg"
   xmlns:inkscape="http://www.inkscape.org/namespaces/inkscape"
   xmlns:sodipodi="http://sodipodi.sourceforge.net/DTD/sodipodi-0.dtd"
   xmlns="http://www.w3.org/2000/svg"
   xmlns:svg="http://www.w3.org/2000/svg">
  <sodipodi:namedview
     id="namedview7"
     pagecolor="#505050"
     bordercolor="#eeeeee"
     borderopacity="1"
     inkscape:pageshadow="0"
     inkscape:pageopacity="0"
     inkscape:pagecheckerboard="0"
     inkscape:document-units="px"
     showgrid="false"
     inkscape:zoom="0.23478156"
     inkscape:cx="1776.1191"
     inkscape:cy="176.76005"
     inkscape:window-width="1920"
     inkscape:window-height="1016"
     inkscape:window-x="0"
     inkscape:window-y="27"
     inkscape:window-maximized="1"
     inkscape:current-layer="layer3" />
  <defs
     id="defs2">
    <linearGradient
       id="linearGradient3538"
       inkscape:swatch="solid">
      <stop
         style="stop-color:#edb88f;stop-opacity:1;"
         offset="0"
         id="stop3536" />
    </linearGradient>
    <linearGradient
       id="linearGradient3530"
       inkscape:swatch="solid">
      <stop
         style="stop-color:#f25192;stop-opacity:1;"
         offset="0"
         id="stop3528" />
    </linearGradient>
    <linearGradient
       id="linearGradient1407-3-6-7-5">
      <stop
         style="stop-color:#edb88f;stop-opacity:1;"
         offset="0"
         id="stop1533" />
    </linearGradient>
    <linearGradient
       id="linearGradient1407-3-6-7">
      <stop
         style="stop-color:#edb88f;stop-opacity:1;"
         offset="0"
         id="stop1530" />
    </linearGradient>
    <linearGradient
       id="linearGradient1407-3-6">
      <stop
         style="stop-color:#edb88f;stop-opacity:1;"
         offset="0"
         id="stop1527" />
    </linearGradient>
    <linearGradient
       id="linearGradient1407-3">
      <stop
         style="stop-color:#edb88f;stop-opacity:1;"
         offset="0"
         id="stop1524" />
    </linearGradient>
    <linearGradient
       id="linearGradient1407"
       gradientTransform="scale(0.25579705,0.2736714)"
       x1="133.14254"
       y1="488.79014"
       x2="536.2767"
       y2="488.79014"
       gradientUnits="userSpaceOnUse">
      <stop
         style="stop-color:#edb88f;stop-opacity:1;"
         offset="0"
         id="stop1521" />
    </linearGradient>
    <linearGradient
       id="linearGradient1407-3-6-7-5-3"
       inkscape:swatch="solid"
       gradientTransform="matrix(0.90345899,0.49609216,-0.54444502,0.99151688,1040.1382,330.06425)">
      <stop
         style="stop-color:#39477f;stop-opacity:1;"
         offset="0"
         id="stop1405" />
    </linearGradient>
    <linearGradient
       id="linearGradient1401">
      <stop
         style="stop-color:#39477f;stop-opacity:1;"
         offset="0"
         id="stop1399" />
    </linearGradient>
  </defs>
  <g
     inkscape:label="folds"
     inkscape:groupmode="layer"
     id="layer1">
    <g
       inkscape:groupmode="layer"
       id="layer3"
       inkscape:label="bg1">
      <g
         style="shape-rendering:crispEdges"
         id="g3115"
         transform="matrix(2.016467,-1.51736,-1.1973787,-1.612993,297.14177,1055.3753)">
        <path
           stroke="#edb88f"
           d="M 0,0 H 512 M 0,1 H 512 M 0,2 H 512 M 0,3 H 512 M 0,4 H 512 M 0,5 H 512 M 0,6 H 512 M 0,7 H 512 M 0,8 H 512 M 0,9 H 512 M 0,10 H 512 M 0,11 H 512 M 0,12 H 512 M 0,13 H 512 M 0,14 H 512 M 0,15 H 512 M 0,16 H 512 M 0,17 H 512 M 0,18 H 512 M 0,19 H 512 M 0,20 H 512 M 0,21 H 512 M 0,22 H 512 M 0,23 H 512 M 0,24 H 512 M 0,25 H 512 M 0,26 H 512 M 0,27 H 512 M 0,28 H 512 M 0,29 H 512 M 0,30 H 512 M 0,31 H 512 M 0,32 H 512 M 0,33 H 512 M 0,34 H 512 M 0,35 H 512 M 0,36 H 512 M 0,37 H 512 M 0,38 H 512 M 0,39 H 512 M 0,40 H 512 M 0,41 H 512 M 0,42 H 512 M 0,43 H 512 M 0,44 H 512 M 0,45 H 512 M 0,46 H 512 M 0,47 H 512 M 0,48 H 512 M 0,49 H 512 M 0,50 H 512 M 0,51 H 512 M 0,52 H 512 M 0,53 H 512 M 0,54 H 512 M 0,55 H 512 M 0,56 H 512 M 0,57 H 512 M 0,58 H 512 M 0,59 H 512 M 0,60 H 512 M 0,61 H 512 M 0,62 H 512 M 0,63 h 512"
           id="path3085" />
        <path
           stroke="#fc9f95"
           d="M 0,64 H 512 M 0,65 H 512 M 0,66 H 512 M 0,67 H 512 M 0,68 H 512 M 0,69 H 512 M 0,70 H 512 M 0,71 H 512 M 0,72 H 512 M 0,73 H 512 M 0,74 H 512 M 0,75 H 512 M 0,76 H 512 M 0,77 H 512 M 0,78 H 512 M 0,79 H 512 M 0,80 H 512 M 0,81 H 512 M 0,82 H 512 M 0,83 H 512 M 0,84 H 512 M 0,85 H 512 M 0,86 H 512 M 0,87 H 512 M 0,88 H 512 M 0,89 H 512 M 0,90 H 512 M 0,91 H 512 M 0,92 H 512 M 0,93 H 512 M 0,94 H 512 M 0,95 H 512 M 0,96 H 512 M 0,97 H 512 M 0,98 H 512 M 0,99 H 512 M 0,100 H 512 M 0,101 H 512 M 0,102 H 512 M 0,103 H 512 M 0,104 H 512 M 0,105 H 512 M 0,106 H 512 M 0,107 H 512 M 0,108 H 512 M 0,109 H 512 M 0,110 H 512 M 0,111 H 512 M 0,112 H 512 M 0,113 H 512 M 0,114 H 512 M 0,115 H 512 M 0,116 H 512 M 0,117 H 512 M 0,118 H 512 M 0,119 H 512 M 0,120 H 512 M 0,121 H 512 M 0,122 H 512 M 0,123 H 512 M 0,124 H 512 M 0,125 H 512 M 0,126 H 512 M 0,127 h 512"
           id="path3087" />
        <path
           stroke="#f77c88"
           d="M 0,128 H 512 M 0,129 H 512 M 0,130 H 512 M 0,131 H 512 M 0,132 H 512 M 0,133 H 512 M 0,134 H 512 M 0,135 H 512 M 0,136 H 512 M 0,137 H 512 M 0,138 H 512 M 0,139 H 512 M 0,140 H 512 M 0,141 H 512 M 0,142 H 512 M 0,143 H 512 M 0,144 H 512 M 0,145 H 512 M 0,146 H 512 M 0,147 H 512 M 0,148 H 512 M 0,149 H 512 M 0,150 H 512 M 0,151 H 512 M 0,152 H 512 M 0,153 H 512 M 0,154 H 512 M 0,155 H 512 M 0,156 H 512 M 0,157 H 512 M 0,158 H 512 M 0,159 H 512 M 0,160 H 512 M 0,161 H 512 M 0,162 H 512 M 0,163 H 512 M 0,164 H 512 M 0,165 H 512 M 0,166 H 512 M 0,167 H 512 M 0,168 H 512 M 0,169 H 512 M 0,170 H 512 M 0,171 H 512 M 0,172 H 512 M 0,173 H 512 M 0,174 H 512 M 0,175 H 512 M 0,176 H 512 M 0,177 H 512 M 0,178 H 512 M 0,179 H 512 M 0,180 H 512 M 0,181 H 512 M 0,182 H 512 M 0,183 H 512 M 0,184 H 512 M 0,185 H 512 M 0,186 H 512 M 0,187 H 512 M 0,188 H 512 M 0,189 H 512 M 0,190 H 512 M 0,191 h 512"
           id="path3089" />
        <path
           stroke="#f25192"
           d="M 0,192 H 512 M 0,193 H 512 M 0,194 H 512 M 0,195 H 512 M 0,196 H 512 M 0,197 H 512 M 0,198 H 512 M 0,199 H 512 M 0,200 H 512 M 0,201 H 512 M 0,202 H 512 M 0,203 H 512 M 0,204 H 512 M 0,205 H 512 M 0,206 H 512 M 0,207 H 512 M 0,208 H 512 M 0,209 H 512 M 0,210 H 512 M 0,211 H 512 M 0,212 H 512 M 0,213 H 512 M 0,214 H 512 M 0,215 H 512 M 0,216 H 512 M 0,217 H 512 M 0,218 H 512 M 0,219 H 512 M 0,220 H 512 M 0,221 H 512 M 0,222 H 512 M 0,223 H 512 M 0,224 H 512 M 0,225 H 512 M 0,226 H 512 M 0,227 H 512 M 0,228 H 512 M 0,229 H 512 M 0,230 H 512 M 0,231 H 512 M 0,232 H 512 M 0,233 H 512 M 0,234 H 512 M 0,235 H 512 M 0,236 H 512 M 0,237 H 512 M 0,238 H 512 M 0,239 H 512 M 0,240 H 512 M 0,241 H 512 M 0,242 H 512 M 0,243 H 512 M 0,244 H 512 M 0,245 H 512 M 0,246 H 512 M 0,247 H 512 M 0,248 H 512 M 0,249 H 512 M 0,250 H 512 M 0,251 H 512 M 0,252 H 512 M 0,253 H 512 M 0,254 H 512 M 0,255 h 512"
           id="path3091" />
        <path
           stroke="#d34ca3"
           d="M 0,256 H 512 M 0,257 H 512 M 0,258 H 512 M 0,259 H 512 M 0,260 H 512 M 0,261 H 512 M 0,262 H 512 M 0,263 H 512 M 0,264 H 512 M 0,265 H 512 M 0,266 H 512 M 0,267 H 512 M 0,268 H 512 M 0,269 H 512 M 0,270 H 512 M 0,271 H 512 M 0,272 H 512 M 0,273 H 512 M 0,274 H 512 M 0,275 H 512 M 0,276 H 512 M 0,277 H 512 M 0,278 H 512 M 0,279 H 512 M 0,280 H 512 M 0,281 H 512 M 0,282 H 512 M 0,283 H 512 M 0,284 H 512 M 0,285 H 512 M 0,286 H 512 M 0,287 H 512 M 0,288 H 512 M 0,289 H 512 M 0,290 H 512 M 0,291 H 512 M 0,292 H 512 M 0,293 H 512 M 0,294 H 512 M 0,295 H 512 M 0,296 H 512 M 0,297 H 512 M 0,298 H 512 M 0,299 H 512 M 0,300 H 512 M 0,301 H 512 M 0,302 H 512 M 0,303 H 512 M 0,304 H 512 M 0,305 H 512 M 0,306 H 512 M 0,307 H 512 M 0,308 H 512 M 0,309 H 512 M 0,310 H 512 M 0,311 H 512 M 0,312 H 512 M 0,313 H 512 M 0,314 H 512 M 0,315 H 512 M 0,316 H 512 M 0,317 H 512 M 0,318 H 512 M 0,319 h 512"
           id="path3093" />
        <path
           stroke="#9a50a5"
           d="M 0,320 H 512 M 0,321 H 512 M 0,322 H 512 M 0,323 H 512 M 0,324 H 512 M 0,325 H 512 M 0,326 H 512 M 0,327 H 512 M 0,328 H 512 M 0,329 H 512 M 0,330 H 512 M 0,331 H 512 M 0,332 H 512 M 0,333 H 512 M 0,334 H 512 M 0,335 H 512 M 0,336 H 512 M 0,337 H 512 M 0,338 H 512 M 0,339 H 512 M 0,340 H 512 M 0,341 H 512 M 0,342 H 512 M 0,343 H 512 M 0,344 H 512 M 0,345 H 512 M 0,346 H 512 M 0,347 H 512 M 0,348 H 512 M 0,349 H 512 M 0,350 H 512 M 0,351 H 512 M 0,352 H 512 M 0,353 H 512 M 0,354 H 512 M 0,355 H 512 M 0,356 H 512 M 0,357 H 512 M 0,358 H 512 M 0,359 H 512 M 0,360 H 512 M 0,361 H 512 M 0,362 H 512 M 0,363 H 512 M 0,364 H 512 M 0,365 H 512 M 0,366 H 512 M 0,367 H 512 M 0,368 H 512 M 0,369 H 512 M 0,370 H 512 M 0,371 H 512 M 0,372 H 512 M 0,373 H 512 M 0,374 H 512 M 0,375 H 512 M 0,376 H 512 M 0,377 H 512 M 0,378 H 512 M 0,379 H 512 M 0,380 H 512 M 0,381 H 512 M 0,382 H 512 M 0,383 h 512"
           id="path3095" />
        <path
           stroke="#59569e"
           d="M 0,384 H 512 M 0,385 H 512 M 0,386 H 512 M 0,387 H 512 M 0,388 H 512 M 0,389 H 512 M 0,390 H 512 M 0,391 H 512 M 0,392 H 512 M 0,393 H 512 M 0,394 H 512 M 0,395 H 512 M 0,396 H 512 M 0,397 H 512 M 0,398 H 512 M 0,399 H 512 M 0,400 H 512 M 0,401 H 512 M 0,402 H 512 M 0,403 H 512 M 0,404 H 512 M 0,405 H 512 M 0,406 H 512 M 0,407 H 512 M 0,408 H 512 M 0,409 H 512 M 0,410 H 512 M 0,411 H 512 M 0,412 H 512 M 0,413 H 512 M 0,414 H 512 M 0,415 H 512 M 0,416 H 512 M 0,417 H 512 M 0,418 H 512 M 0,419 H 512 M 0,420 H 512 M 0,421 H 512 M 0,422 H 512 M 0,423 H 512 M 0,424 H 512 M 0,425 H 512 M 0,426 H 512 M 0,427 H 512 M 0,428 H 512 M 0,429 H 512 M 0,430 H 512 M 0,431 H 512 M 0,432 H 512 M 0,433 H 512 M 0,434 H 512 M 0,435 H 512 M 0,436 H 512 M 0,437 H 512 M 0,438 H 512 M 0,439 H 512 M 0,440 H 512 M 0,441 H 512 M 0,442 H 512 M 0,443 H 512 M 0,444 H 512 M 0,445 H 512 M 0,446 H 512 M 0,447 h 512"
           id="path3097" />
        <path
           stroke="#39477f"
           d="M 0,448 H 512 M 0,449 H 512 M 0,450 H 512 M 0,451 H 512 M 0,452 H 512 M 0,453 H 512 M 0,454 H 512 M 0,455 H 512 M 0,456 H 512 M 0,457 H 512 M 0,458 H 512 M 0,459 H 512 M 0,460 H 512 M 0,461 H 512 M 0,462 H 512 M 0,463 H 512 M 0,464 H 512 M 0,465 H 512 M 0,466 H 512 M 0,467 H 512 M 0,468 H 512 M 0,469 H 512 M 0,470 H 512 M 0,471 H 512 M 0,472 H 512 M 0,473 H 512 M 0,474 H 512 M 0,475 H 512 M 0,476 H 512 M 0,477 H 512 M 0,478 H 512 M 0,479 H 512 M 0,480 H 512 M 0,481 H 512 M 0,482 H 512 M 0,483 H 512 M 0,484 H 512 M 0,485 H 512 M 0,486 H 512 M 0,487 H 512 M 0,488 H 512 M 0,489 H 512 M 0,490 H 512 M 0,491 H 512 M 0,492 H 512 M 0,493 H 512 M 0,494 H 512 M 0,495 H 512 M 0,496 H 512 M 0,497 H 512 M 0,498 H 512 M 0,499 H 512 M 0,500 H 512 M 0,501 H 512 M 0,502 H 512 M 0,503 H 512 M 0,504 H 512 M 0,505 H 512 M 0,506 H 512 M 0,507 H 512 M 0,508 H 512 M 0,509 H 512 M 0,510 H 512 M 0,511 h 512"
           id="path3099" />
      </g>
    </g>
    <path
       sodipodi:type="star"
       style="fill:#202124;fill-opacity:1"
       id="path894"
       inkscape:flatsided="false"
       sodipodi:sides="3"
       sodipodi:cx="43.668751"
       sodipodi:cy="1760.007"
       sodipodi:r1="1403.5649"
       sodipodi:r2="701.78247"
       sodipodi:arg1="0.49082878"
       sodipodi:arg2="1.5380263"
       inkscape:rounded="0"
       inkscape:randomized="0"
       d="M 1281.5323,2421.5871 66.662065,2461.4126 -1148.2083,2501.2382 -575.26305,1429.2169 -2.3178345,357.19557 639.60724,1389.3913 Z"
       transform="matrix(1.1478241,0,0,0.25948741,-838.97736,7.8728286)"
       inkscape:transform-center-x="-26.392242"
       inkscape:transform-center-y="-85.835856" />
    <path
       sodipodi:type="star"
       style="fill:#2a2b2e;fill-opacity:1"
       id="path1022"
       inkscape:flatsided="false"
       sodipodi:sides="3"
       sodipodi:cx="612.7533"
       sodipodi:cy="3031.0359"
       sodipodi:r1="2003.0597"
       sodipodi:r2="1001.5298"
       sodipodi:arg1="-1.0453436"
       sodipodi:arg2="0.0018539278"
       inkscape:rounded="0"
       inkscape:randomized="0"
       d="m 1617.4975,1298.1951 -3.2161,1734.6976 -3.216,1734.6976 L 110.38126,3897.4563 -1390.303,3027.3223 113.59727,2162.7588 Z"
       transform="matrix(0,0.11642765,-0.77572173,0,3492.8879,455.22928)"
       inkscape:transform-center-x="1.4402395"
       inkscape:transform-center-y="-58.115584" />
  </g>
  <g
     inkscape:groupmode="layer"
     id="layer2"
     inkscape:label="background"
     style="display:none">
    <path
       id="rect2187"
       style="fill:url(#linearGradient1407-3-6-7-5-3);stroke:#39477f;stroke-width:0.285687"
       d="m 194.91101,-622.2483 128.80733,70.7285 -613.03687,1116.43303 -128.80733,-70.7285 z" />
    <path
       id="rect2187-6"
       style="fill:url(#linearGradient1407-3-6-7-5-3);stroke:#39477f;stroke-width:0.285687"
       d="m 323.71834,-551.5198 128.80733,70.7285 -613.03687,1116.43303 -128.80733,-70.7285 z" />
    <path
       id="rect2187-6-5"
       style="fill:url(#linearGradient1407-3-6-7-5-3);stroke:#39477f;stroke-width:0.285687"
       d="M 452.52567,-480.7913 581.333,-410.0628 -31.70387,706.37023 -160.5112,635.64173 Z" />
    <path
       id="rect2187-6-5-5"
       style="fill:url(#linearGradient1407-3-6-7-5-3);stroke:#39477f;stroke-width:0.285687"
       d="M 581.333,-410.0628 710.14033,-339.3343 97.10346,777.09873 -31.70387,706.37023 Z" />
    <path
       id="rect2187-6-5-5-2"
       style="fill:url(#linearGradient1407-3-6-7-5-3);stroke:#39477f;stroke-width:0.285687"
       d="M 710.14033,-339.3343 838.94766,-268.6058 225.91079,847.82723 97.10346,777.09873 Z" />
    <path
       id="rect2187-6-5-5-2-1"
       style="fill:url(#linearGradient1407-3-6-7-5-3);stroke:#39477f;stroke-width:0.285687"
       d="M 838.94766,-268.6058 967.75499,-197.8773 354.71812,918.55573 225.91079,847.82723 Z" />
    <path
       id="rect2187-6-5-5-2-1-7"
       style="fill:url(#linearGradient1407-3-6-7-5-3);stroke:#39477f;stroke-width:0.285687"
       d="M 967.75499,-197.8773 1096.5623,-127.1488 483.52546,989.28423 354.71813,918.55573 Z" />
    <path
       id="rect2187-6-5-5-2-1-7-9"
       style="fill:url(#linearGradient1407-3-6-7-5-3);stroke:#39477f;stroke-width:0.285687"
       d="m 1096.5623,-127.1488 128.8073,70.7285 -613.03682,1116.433 -128.80733,-70.72847 z" />
    <path
       id="rect2187-6-5-5-2-1-7-9-6"
       style="fill:url(#linearGradient1407-3-6-7-5-3);stroke:#39477f;stroke-width:0.285687"
       d="m 1225.3696,-56.4203 128.8073,70.7285 -613.03678,1116.433 -128.80733,-70.7285 z" />
  </g>
</svg>
