<?xml version="1.0" encoding="UTF-8" standalone="no"?>
<svg
   height="100px"
   width="100px"
   fill="#000000"
   version="1.1"
   x="0px"
   y="0px"
   viewBox="0 0 100 100"
   enable-background="new 0 0 100 100"
   xml:space="preserve"
   id="svg42"
   sodipodi:docname="blueprint.svg"
   inkscape:version="1.1 (ce6663b3b7, 2021-05-25)"
   xmlns:inkscape="http://www.inkscape.org/namespaces/inkscape"
   xmlns:sodipodi="http://sodipodi.sourceforge.net/DTD/sodipodi-0.dtd"
   xmlns="http://www.w3.org/2000/svg"
   xmlns:svg="http://www.w3.org/2000/svg"><defs
     id="defs46" /><sodipodi:namedview
     id="namedview44"
     pagecolor="#505050"
     bordercolor="#eeeeee"
     borderopacity="1"
     inkscape:pageshadow="0"
     inkscape:pageopacity="0"
     inkscape:pagecheckerboard="0"
     showgrid="false"
     inkscape:zoom="8.44"
     inkscape:cx="50"
     inkscape:cy="59.537915"
     inkscape:window-width="1920"
     inkscape:window-height="1016"
     inkscape:window-x="0"
     inkscape:window-y="27"
     inkscape:window-maximized="1"
     inkscape:current-layer="svg42" /><path
     fill="#000000"
     d="M 47.409761,61.598079 35.384321,48.535261 c -0.16859,-0.181509 -0.423736,-0.244165 -0.651752,-0.159547 -0.231892,0.08139 -0.390147,0.293256 -0.403712,0.537421 L 33.614449,61.25444 c -0.0155,0.28938 0.172465,0.543234 0.439238,0.619455 0.04263,0.01292 0.08849,0.02067 0.133709,0.02132 l 12.739849,0.723451 c 0.246749,0.01421 0.477995,-0.122082 0.584575,-0.346223 0.105933,-0.225433 0.06524,-0.490913 -0.102059,-0.67436 z m -5.341267,-0.31651 c -0.09302,0.323615 -0.430195,0.509 -0.753164,0.417922 -0.322324,-0.09302 -0.509646,-0.428903 -0.415985,-0.752518 l 0.352683,-1.227284 -2.758804,-0.789337 -0.352683,1.22793 c -0.09366,0.322969 -0.429549,0.510291 -0.751227,0.417276 -0.322969,-0.09172 -0.509645,-0.428257 -0.41663,-0.750581 l 0.350745,-1.229221 -1.966238,-0.561967 c -0.322969,-0.09237 -0.509645,-0.428903 -0.41663,-0.751872 0.09172,-0.32297 0.428257,-0.509646 0.751227,-0.417277 l 1.967529,0.561967 0.773834,-2.700024 c 0.09302,-0.322323 0.430196,-0.508999 0.751873,-0.417276 0.322323,0.09302 0.509646,0.429549 0.417276,0.753164 l -0.775126,2.699378 2.75945,0.789337 0.128542,-0.446989 c 0.09237,-0.321678 0.428257,-0.510292 0.751872,-0.417277 0.32297,0.09172 0.509,0.428258 0.417277,0.751873 z"
     id="path2"
     style="fill:#c2d9ff;fill-opacity:1;stroke-width:0.645939" /><polygon
     fill="#000000"
     points="52.649,37.859 51.385,42.271 55.656,43.492 56.923,39.081 "
     id="polygon4"
     style="fill:#c2d9ff;fill-opacity:1"
     transform="matrix(0.64593868,0,0,0.64593868,17.783138,17.74401)" /><rect
     x="61.403702"
     y="22.13784"
     transform="rotate(15.96822)"
     fill="#000000"
     width="2.8705082"
     height="2.9667518"
     id="rect6"
     style="fill:#c2d9ff;fill-opacity:1;stroke-width:0.645929" /><polygon
     fill="#000000"
     points="50.866,44.083 49.599,48.494 53.872,49.715 55.138,45.304 "
     id="polygon8"
     style="fill:#c2d9ff;fill-opacity:1"
     transform="matrix(0.64593868,0,0,0.64593868,17.783138,17.74401)" /><rect
     x="57.32053"
     y="17.959026"
     transform="rotate(15.96822)"
     fill="#000000"
     width="2.8698623"
     height="2.9641683"
     id="rect10"
     style="fill:#c2d9ff;fill-opacity:1;stroke-width:0.645929" /><rect
     x="57.318428"
     y="22.139616"
     transform="rotate(15.96822)"
     fill="#000000"
     width="2.8672788"
     height="2.9661059"
     id="rect12"
     style="fill:#c2d9ff;fill-opacity:1;stroke-width:0.645929" /><polygon
     fill="#000000"
     points="56.221,25.411 54.954,29.822 59.229,31.045 60.493,26.632 "
     id="polygon14"
     style="fill:#c2d9ff;fill-opacity:1"
     transform="matrix(0.64593868,0,0,0.64593868,17.783138,17.74401)" /><polygon
     fill="#000000"
     points="62.303,27.149 61.036,31.562 65.308,32.784 66.575,28.371 "
     id="polygon16"
     style="fill:#c2d9ff;fill-opacity:1"
     transform="matrix(0.64593868,0,0,0.64593868,17.783138,17.74401)" /><rect
     x="65.48259"
     y="22.158403"
     transform="rotate(15.950118)"
     fill="#000000"
     width="2.8705475"
     height="2.9661465"
     id="rect18"
     style="fill:#c2d9ff;fill-opacity:1;stroke-width:0.645938" /><rect
     x="65.479446"
     y="26.3414"
     transform="rotate(15.950118)"
     fill="#000000"
     width="2.8705475"
     height="2.9635625"
     id="rect20"
     style="fill:#c2d9ff;fill-opacity:1;stroke-width:0.645938" /><polygon
     fill="#000000"
     points="56.949,45.821 55.682,50.233 59.953,51.454 61.22,47.042 "
     id="polygon22"
     style="fill:#c2d9ff;fill-opacity:1"
     transform="matrix(0.64593868,0,0,0.64593868,17.783138,17.74401)" /><polygon
     fill="#000000"
     points="42.273,28.156 41.006,32.57 45.278,33.792 46.545,29.377 "
     id="polygon24"
     style="fill:#c2d9ff;fill-opacity:1"
     transform="matrix(0.64593868,0,0,0.64593868,17.783138,17.74401)" /><rect
     x="45.062817"
     y="17.963257"
     transform="rotate(15.962711)"
     fill="#000000"
     width="2.8691375"
     height="2.9647326"
     id="rect26"
     style="fill:#c2d9ff;fill-opacity:1;stroke-width:0.645911" /><rect
     x="40.974861"
     y="17.970684"
     transform="rotate(15.955627)"
     fill="#000000"
     width="2.8712726"
     height="2.9655821"
     id="rect28"
     style="fill:#c2d9ff;fill-opacity:1;stroke-width:0.645956" /><path
     fill="#000000"
     d="m 74.227843,26.592724 c -4.364607,-1.247953 -6.977429,-0.499311 -7.088531,-0.467014 -0.198303,0.06007 -0.352682,0.215744 -0.410171,0.416631 l -2.093487,7.293293 -32.381552,-9.259531 c -0.322323,-0.09237 -0.658212,0.09495 -0.751227,0.417923 l -1.662646,5.797945 -1.780207,-1.933294 C 27.89337,28.67846 27.63564,28.613866 27.407624,28.699776 c -0.2306,0.08074 -0.388209,0.293256 -0.40242,0.537421 l -0.830677,14.331442 -5.60158,19.52931 c -0.09172,0.322969 0.09495,0.659503 0.417276,0.752518 l 3.945394,1.127809 -0.220911,3.824603 c -0.01679,0.289381 0.171819,0.543235 0.436654,0.620101 0.04328,0.01227 0.08914,0.01938 0.135001,0.02132 l 19.048086,1.080656 15.980523,4.570016 c 6.947071,1.985615 7.9683,-1.576091 8.516702,-3.491299 L 78.358621,38.393378 79.762246,33.4991 c 0.693738,-2.418394 -1.187235,-5.662298 -5.534403,-6.906376 z m -40.771003,1.02898 c 0.09237,-0.322323 0.428903,-0.509645 0.751872,-0.417276 l 27.49761,7.862366 c 0.321678,0.09366 0.509646,0.430195 0.416631,0.752518 l -6.13448,21.390906 c -0.09366,0.323615 -0.430195,0.510937 -0.753811,0.418568 -0.321677,-0.09366 -0.508353,-0.430195 -0.41663,-0.752519 l 1.355825,-4.726333 -2.758804,-0.788691 -0.685987,2.389973 c -0.09366,0.322969 -0.428903,0.510937 -0.751226,0.417922 -0.32297,-0.09237 -0.509646,-0.428903 -0.417923,-0.751872 l 0.685987,-2.390619 -3.344024,-0.95599 C 48.57891,49.978288 48.392234,49.6424 48.485249,49.318785 l 0.985057,-3.435102 -2.75945,-0.788691 -0.479933,1.672981 c -0.09301,0.322969 -0.430195,0.510291 -0.753164,0.417922 -0.322324,-0.09237 -0.508354,-0.428257 -0.415985,-0.751226 l 0.479287,-1.674274 -3.342087,-0.955989 c -0.322969,-0.09237 -0.509646,-0.429549 -0.417277,-0.751227 l 0.985057,-3.435101 -2.760096,-0.789983 -0.310051,1.081947 c -0.09237,0.322969 -0.428903,0.510937 -0.751872,0.418568 -0.323615,-0.09237 -0.509646,-0.429549 -0.416631,-0.752518 L 39.991155,34.47253 37.233643,33.683839 36.437847,36.4575 c -0.09237,0.322969 -0.428904,0.510937 -0.752519,0.418568 -0.322969,-0.09366 -0.509645,-0.430195 -0.41663,-0.752519 l 0.794504,-2.774306 -3.225172,-0.922401 c -0.04328,-0.0026 -0.08333,0.0019 -0.124666,-0.0097 -0.322969,-0.09237 -0.510291,-0.429549 -0.417922,-0.752518 z m -8.528975,34.141735 c -0.09108,0.322324 -0.428257,0.509 -0.751226,0.417277 -0.32297,-0.09301 -0.509646,-0.429549 -0.417277,-0.753165 l 0.662733,-2.308585 c 0.09237,-0.321677 0.42955,-0.509645 0.751227,-0.417276 0.323615,0.09172 0.509646,0.428257 0.417276,0.751873 z m 1.036086,6.500081 2.172938,-37.52387 4.601667,5.000212 -1.359701,1.213719 c -0.251916,0.22414 -0.273232,0.608474 -0.04974,0.859098 0.07945,0.09043 0.178279,0.149858 0.285505,0.179571 0.194427,0.05555 0.412108,0.01356 0.572947,-0.13048 l 1.375204,-1.227283 1.557358,1.691067 -1.368098,1.220824 c -0.251916,0.224141 -0.273232,0.608475 -0.04974,0.858453 0.0801,0.09043 0.178925,0.149858 0.285505,0.180217 0.193136,0.05555 0.412755,0.01292 0.572948,-0.13048 l 1.382955,-1.234389 1.558004,1.693006 -1.375204,1.225991 c -0.25127,0.224141 -0.272586,0.60912 -0.04974,0.859745 0.08074,0.08914 0.179571,0.148566 0.285505,0.179571 0.193782,0.05555 0.412109,0.01356 0.573593,-0.131126 l 1.388123,-1.239556 1.558004,1.691713 -1.381663,1.233097 c -0.251916,0.222849 -0.273232,0.608474 -0.04909,0.858453 0.0788,0.09043 0.178279,0.149211 0.284859,0.180216 0.194427,0.05555 0.410817,0.01356 0.572947,-0.131125 l 1.395874,-1.246662 1.558004,1.693006 -1.389414,1.238264 c -0.249979,0.222849 -0.272586,0.608474 -0.04974,0.859098 0.07945,0.08914 0.179571,0.148566 0.285505,0.17828 0.194428,0.0549 0.412109,0.01356 0.573594,-0.129834 l 1.402333,-1.252475 1.558004,1.693005 -1.395874,1.244724 c -0.25127,0.224141 -0.27194,0.608474 -0.04909,0.859744 0.0801,0.08914 0.178925,0.14792 0.284859,0.178925 0.194428,0.05555 0.412755,0.01357 0.572948,-0.130479 l 1.409438,-1.258289 1.558004,1.691068 -1.401687,1.251829 c -0.250624,0.223495 -0.272586,0.607828 -0.04974,0.858452 0.07945,0.09043 0.179571,0.148566 0.285505,0.179571 0.194427,0.0549 0.412108,0.01356 0.572947,-0.130479 l 1.41719,-1.264102 1.557358,1.692359 -1.407501,1.255705 c -0.251916,0.22414 -0.272586,0.608474 -0.04974,0.858452 0.07945,0.08914 0.179571,0.149212 0.284213,0.180217 0.194428,0.0549 0.412755,0.01292 0.573594,-0.131771 l 1.422357,-1.267978 1.556712,1.691067 -1.415252,1.262165 c -0.250624,0.22414 -0.273878,0.608474 -0.04974,0.859098 0.07945,0.09108 0.178279,0.149858 0.284859,0.179571 0.194427,0.0549 0.411463,0.01356 0.573593,-0.13048 l 1.430109,-1.27702 1.556712,1.692359 -1.421065,1.26927 c -0.252562,0.22414 -0.272586,0.607828 -0.04909,0.857806 0.0788,0.08979 0.178925,0.148566 0.284858,0.180217 0.194428,0.0562 0.412755,0.01356 0.572948,-0.131771 l 1.436568,-1.280897 1.652311,1.795064 -0.842304,2.939021 c -0.06201,0.213159 -0.0026,0.442468 0.154379,0.597493 0.156317,0.156963 0.385626,0.215098 0.600077,0.153087 0.01615,-0.0039 1.247308,-0.330074 3.37826,-0.114977 l 4.768965,5.179137 z m 42.489847,0.2545 C 67.650896,66.929657 65.924302,65.447874 63.298561,64.697293 60.48033,63.891807 58.391365,63.917645 57.236426,64.046187 L 67.797524,27.224452 c 0.771251,-0.136293 2.93127,-0.366247 6.095077,0.537421 3.98415,1.140082 5.148778,3.845919 4.700496,5.402631 z"
     id="path30"
     style="fill:#c2d9ff;fill-opacity:1;stroke-width:0.645939" /><rect
     x="49.141167"
     y="22.152637"
     transform="rotate(15.955627)"
     fill="#000000"
     width="2.8699803"
     height="2.9668739"
     id="rect32"
     style="fill:#c2d9ff;fill-opacity:1;stroke-width:0.645956" /><polygon
     fill="#000000"
     points="37.976,20.194 36.71,24.605 40.985,25.827 42.249,21.416 "
     id="polygon34"
     style="fill:#c2d9ff;fill-opacity:1"
     transform="matrix(0.64593868,0,0,0.64593868,17.783138,17.74401)" /><polygon
     fill="#000000"
     points="44.058,21.933 42.792,26.345 47.064,27.567 48.33,23.154 "
     id="polygon36"
     style="fill:#c2d9ff;fill-opacity:1"
     transform="matrix(0.64593868,0,0,0.64593868,17.783138,17.74401)" /><polygon
     fill="#000000"
     points="46.57,36.12 45.303,40.532 49.574,41.753 50.84,37.341 "
     id="polygon38"
     style="fill:#c2d9ff;fill-opacity:1"
     transform="matrix(0.64593868,0,0,0.64593868,17.783138,17.74401)" /><rect
     x="53.224335"
     y="26.337107"
     transform="rotate(15.955627)"
     fill="#000000"
     width="2.8699803"
     height="2.9642901"
     id="rect40"
     style="fill:#c2d9ff;fill-opacity:1;stroke-width:0.645956" /></svg>
