<?xml version="1.0" encoding="UTF-8" standalone="no"?>
<svg
   height="100px"
   width="100px"
   fill="#000000"
   version="1.1"
   x="0px"
   y="0px"
   viewBox="0 0 100 100"
   enable-background="new 0 0 100 100"
   xml:space="preserve"
   id="svg56"
   sodipodi:docname="confusion.svg"
   inkscape:version="1.1 (ce6663b3b7, 2021-05-25)"
   xmlns:inkscape="http://www.inkscape.org/namespaces/inkscape"
   xmlns:sodipodi="http://sodipodi.sourceforge.net/DTD/sodipodi-0.dtd"
   xmlns="http://www.w3.org/2000/svg"
   xmlns:svg="http://www.w3.org/2000/svg"><defs
     id="defs60"><linearGradient
       id="linearGradient963"
       inkscape:swatch="solid"><stop
         style="stop-color:#000000;stop-opacity:1;"
         offset="0"
         id="stop961" /></linearGradient><linearGradient
       id="linearGradient957"
       inkscape:swatch="solid"><stop
         style="stop-color:#000000;stop-opacity:1;"
         offset="0"
         id="stop955" /></linearGradient><linearGradient
       id="linearGradient951"
       inkscape:swatch="solid"><stop
         style="stop-color:#000000;stop-opacity:1;"
         offset="0"
         id="stop949" /></linearGradient><linearGradient
       id="linearGradient945"
       inkscape:swatch="solid"><stop
         style="stop-color:#000000;stop-opacity:1;"
         offset="0"
         id="stop943" /></linearGradient><linearGradient
       id="linearGradient939"
       inkscape:swatch="solid"><stop
         style="stop-color:#000000;stop-opacity:1;"
         offset="0"
         id="stop937" /></linearGradient><linearGradient
       id="linearGradient933"
       inkscape:swatch="solid"><stop
         style="stop-color:#000000;stop-opacity:1;"
         offset="0"
         id="stop931" /></linearGradient><linearGradient
       id="linearGradient927"
       inkscape:swatch="solid"><stop
         style="stop-color:#000000;stop-opacity:1;"
         offset="0"
         id="stop925" /></linearGradient><linearGradient
       id="linearGradient921"
       inkscape:swatch="solid"><stop
         style="stop-color:#000000;stop-opacity:1;"
         offset="0"
         id="stop919" /></linearGradient><linearGradient
       id="linearGradient915"
       inkscape:swatch="solid"><stop
         style="stop-color:#000000;stop-opacity:1;"
         offset="0"
         id="stop913" /></linearGradient><linearGradient
       id="linearGradient909"
       inkscape:swatch="solid"><stop
         style="stop-color:#000000;stop-opacity:1;"
         offset="0"
         id="stop907" /></linearGradient><linearGradient
       id="linearGradient903"
       inkscape:swatch="solid"><stop
         style="stop-color:#000000;stop-opacity:1;"
         offset="0"
         id="stop901" /></linearGradient><linearGradient
       id="linearGradient897"
       inkscape:swatch="solid"><stop
         style="stop-color:#000000;stop-opacity:1;"
         offset="0"
         id="stop895" /></linearGradient><linearGradient
       id="linearGradient891"
       inkscape:swatch="solid"><stop
         style="stop-color:#000000;stop-opacity:1;"
         offset="0"
         id="stop889" /></linearGradient><linearGradient
       id="linearGradient885"
       inkscape:swatch="solid"
       gradientTransform="matrix(0.99996564,0,0,0.99996564,12.568399,-115.87541)"><stop
         style="stop-color:#c2d9ff;stop-opacity:1;"
         offset="0"
         id="stop883" /></linearGradient><linearGradient
       id="linearGradient879"
       inkscape:swatch="solid"><stop
         style="stop-color:#000000;stop-opacity:1;"
         offset="0"
         id="stop877" /></linearGradient></defs><sodipodi:namedview
     id="namedview58"
     pagecolor="#505050"
     bordercolor="#eeeeee"
     borderopacity="1"
     inkscape:pageshadow="0"
     inkscape:pageopacity="0"
     inkscape:pagecheckerboard="0"
     showgrid="false"
     inkscape:zoom="4.22"
     inkscape:cx="70.616114"
     inkscape:cy="87.559242"
     inkscape:window-width="1920"
     inkscape:window-height="1016"
     inkscape:window-x="0"
     inkscape:window-y="27"
     inkscape:window-maximized="1"
     inkscape:current-layer="g38" /><path
     fill="#000000"
     d="M15.945,44.255c-2.983,0-5.41-2.426-5.41-5.409s2.427-5.41,5.41-5.41c2.982,0,5.408,2.427,5.408,5.41  S18.927,44.255,15.945,44.255z M15.945,35.374c-1.915,0-3.473,1.558-3.473,3.472c0,1.914,1.558,3.472,3.473,3.472  c1.914,0,3.471-1.558,3.471-3.472C19.416,36.932,17.859,35.374,15.945,35.374z"
     id="path2"
     style="fill-opacity:1;fill:url(#linearGradient885)" /><path
     fill="#000000"
     d="M63.905,26.049c-2.982,0-5.409-2.427-5.409-5.41c0-2.983,2.427-5.409,5.409-5.409s5.408,2.426,5.408,5.409  C69.313,23.622,66.888,26.049,63.905,26.049z M63.905,17.167c-1.914,0-3.472,1.558-3.472,3.472c0,1.915,1.558,3.473,3.472,3.473  s3.471-1.558,3.471-3.473C67.376,18.725,65.819,17.167,63.905,17.167z"
     id="path4"
     style="fill-opacity:1;fill:url(#linearGradient885)" /><path
     fill="#000000"
     d="M83,59.636c-2.982,0-5.408-2.427-5.408-5.41c0-2.982,2.426-5.409,5.408-5.409c2.983,0,5.41,2.426,5.41,5.409  C88.41,57.209,85.983,59.636,83,59.636z M83,50.754c-1.914,0-3.471,1.557-3.471,3.471c0,1.915,1.557,3.473,3.471,3.473  c1.915,0,3.473-1.558,3.473-3.473C86.473,52.312,84.915,50.754,83,50.754z"
     id="path6"
     style="fill-opacity:1;fill:url(#linearGradient885)" /><path
     fill="#000000"
     d="M46.587,49.58c-2.983,0-5.411-2.427-5.411-5.41c0-2.983,2.427-5.409,5.411-5.409  c2.982,0,5.408,2.426,5.408,5.409C51.995,47.153,49.569,49.58,46.587,49.58z M46.587,40.698c-1.915,0-3.473,1.558-3.473,3.472  c0,1.915,1.558,3.473,3.473,3.473c1.914,0,3.471-1.558,3.471-3.473C50.058,42.255,48.5,40.698,46.587,40.698z"
     id="path8"
     style="fill-opacity:1;fill:url(#linearGradient885)" /><path
     fill="#000000"
     d="M19.053,74.454c-2.982,0-5.408-2.427-5.408-5.41s2.426-5.41,5.408-5.41c2.983,0,5.41,2.427,5.41,5.41  S22.036,74.454,19.053,74.454z M19.053,65.571c-1.914,0-3.471,1.558-3.471,3.473s1.557,3.473,3.471,3.473  c1.915,0,3.473-1.558,3.473-3.473S20.967,65.571,19.053,65.571z"
     id="path10"
     style="fill-opacity:1;fill:url(#linearGradient885)" /><path
     fill="#000000"
     d="M73.897,81.114c-2.983,0-5.41-2.426-5.41-5.408c0-2.983,2.427-5.41,5.41-5.41  c2.982,0,5.408,2.427,5.408,5.41C79.306,78.688,76.88,81.114,73.897,81.114z M73.897,72.233c-1.915,0-3.473,1.558-3.473,3.473  c0,1.914,1.558,3.471,3.473,3.471c1.914,0,3.471-1.557,3.471-3.471C77.368,73.791,75.812,72.233,73.897,72.233z"
     id="path12"
     style="fill-opacity:1;fill:url(#linearGradient885)" /><rect
     x="38.734"
     y="7.315"
     transform="matrix(0.3749 0.9271 -0.9271 0.3749 51.3643 -18.9092)"
     fill="#000000"
     width="1.938"
     height="42.634"
     id="rect14"
     style="fill-opacity:1;fill:url(#linearGradient885)" /><rect
     x="55.943"
     y="22.396"
     transform="matrix(0.7434 0.6688 -0.6688 0.7434 36.574 -29.6348)"
     fill="#000000"
     width="1.938"
     height="20.91"
     id="rect16"
     style="fill-opacity:1;fill:url(#linearGradient885)" /><rect
     x="50.755"
     y="48.02"
     transform="matrix(0.965 0.2622 -0.2622 0.965 15.1138 -15.2972)"
     fill="#000000"
     width="28.254"
     height="1.938"
     id="rect18"
     style="fill-opacity:1;fill:url(#linearGradient885)" /><rect
     x="50.035"
     y="32.788"
     transform="matrix(0.269 0.9631 -0.9631 0.269 96.3762 -4.2751)"
     fill="#000000"
     width="1.939"
     height="57.13"
     id="rect20"
     style="fill-opacity:1;fill:url(#linearGradient885)" /><rect
     x="23.186"
     y="71.849"
     transform="matrix(0.9868 0.1621 -0.1621 0.9868 12.4161 -6.5695)"
     fill="#000000"
     width="46.578"
     height="1.938"
     id="rect22"
     style="fill-opacity:1;fill:url(#linearGradient885)" /><g
     id="g30"
     style="fill-opacity:1;fill:url(#linearGradient885)"><rect
       x="66.284"
       y="24.476"
       transform="matrix(0.1602 0.9871 -0.9871 0.1602 96.6402 -32.2146)"
       fill="#000000"
       width="1.938"
       height="32.427"
       id="rect24"
       style="fill-opacity:1;fill:url(#linearGradient885)" /><g
       id="g28"
       style="fill-opacity:1;fill:url(#linearGradient885)"><polygon
         fill="#000000"
         points="79.974,41.952 82.691,38.183 78.921,35.467 81.674,35.02 85.443,37.736 82.727,41.505   "
         id="polygon26"
         style="fill-opacity:1;fill:url(#linearGradient885)" /></g></g><g
     id="g38"
     style="fill-opacity:1;fill:url(#linearGradient885)"><rect
       x="83.367966"
       y="-49.07571"
       transform="rotate(72.239378)"
       fill="#000000"
       width="6.8237653"
       height="1.9379333"
       id="rect32"
       style="fill:url(#linearGradient885);fill-opacity:1;stroke-width:0.999966" /><g
       id="g36"
       style="fill:url(#linearGradient885);fill-opacity:1"
       transform="rotate(-16.717745,73.93069,74.448456)"><polygon
         fill="#000000"
         points="71.517,67.573 71.475,65.286 74.119,62.544 76.861,65.188 76.903,67.476 74.161,64.829 "
         id="polygon34"
         style="fill:url(#linearGradient885);fill-opacity:1" /></g></g><g
     id="g46"
     style="fill-opacity:1;fill:url(#linearGradient885)"><rect
       x="25.084"
       y="48.5"
       transform="matrix(0.8684 0.4959 -0.4959 0.8684 31.815 -5.3857)"
       fill="#000000"
       width="1.938"
       height="17.477"
       id="rect40"
       style="fill-opacity:1;fill:url(#linearGradient885)" /><g
       id="g44"
       style="fill-opacity:1;fill:url(#linearGradient885)"><polygon
         fill="#000000"
         points="31.326,54.632 30.104,50.148 25.621,51.372 27.005,48.95 31.487,47.728 32.709,52.21   "
         id="polygon42"
         style="fill-opacity:1;fill:url(#linearGradient885)" /></g></g><g
     id="g54"
     style="fill-opacity:1;fill:url(#linearGradient885)"><rect
       x="34.534"
       y="17.183001"
       transform="matrix(0.9982,0.0601,-0.0601,0.9982,1.1773,-2.8088)"
       fill="#000000"
       width="25.426805"
       height="1.938"
       id="rect48"
       style="fill:url(#linearGradient885);fill-opacity:1" /><g
       id="g52"
       style="fill-opacity:1;fill:url(#linearGradient885)"><polygon
         fill="#000000"
         points="38.607,14.34 35.128,17.421 38.212,20.898 35.428,20.731 32.346,17.254 35.823,14.172   "
         id="polygon50"
         style="fill-opacity:1;fill:url(#linearGradient885)" /></g></g></svg>
