<?xml version="1.0" encoding="UTF-8" standalone="no"?>
<svg
   height="100px"
   width="100px"
   fill="#000000"
   version="1.1"
   x="0px"
   y="0px"
   viewBox="0 0 44 44"
   enable-background="new 0 0 44 44"
   xml:space="preserve"
   id="svg14"
   sodipodi:docname="journal.svg"
   inkscape:version="1.1 (ce6663b3b7, 2021-05-25)"
   xmlns:inkscape="http://www.inkscape.org/namespaces/inkscape"
   xmlns:sodipodi="http://sodipodi.sourceforge.net/DTD/sodipodi-0.dtd"
   xmlns:xlink="http://www.w3.org/1999/xlink"
   xmlns="http://www.w3.org/2000/svg"
   xmlns:svg="http://www.w3.org/2000/svg"
   xmlns:i="http://ns.adobe.com/AdobeIllustrator/10.0/"><defs
     id="defs18"><linearGradient
       id="linearGradient3000"
       inkscape:swatch="solid"><stop
         style="stop-color:#c2d9ff;stop-opacity:1;"
         offset="0"
         id="stop2998" /></linearGradient><linearGradient
       id="linearGradient1030"
       inkscape:swatch="solid"><stop
         style="stop-color:#000000;stop-opacity:1;"
         offset="0"
         id="stop1028" /></linearGradient><linearGradient
       id="linearGradient1024"
       inkscape:swatch="solid"><stop
         style="stop-color:#000000;stop-opacity:1;"
         offset="0"
         id="stop1022" /></linearGradient><linearGradient
       id="linearGradient1018"
       inkscape:swatch="solid"><stop
         style="stop-color:#000000;stop-opacity:1;"
         offset="0"
         id="stop1016" /></linearGradient><linearGradient
       id="linearGradient1012"
       inkscape:swatch="solid"><stop
         style="stop-color:#c2d9ff;stop-opacity:1;"
         offset="0"
         id="stop1010" /></linearGradient><linearGradient
       id="linearGradient837"
       inkscape:swatch="solid"><stop
         style="stop-color:#c2d9ff;stop-opacity:1;"
         offset="0"
         id="stop835" /></linearGradient><linearGradient
       inkscape:collect="always"
       xlink:href="#linearGradient837"
       id="linearGradient839"
       x1="5.3"
       y1="22.4"
       x2="38.3"
       y2="22.4"
       gradientUnits="userSpaceOnUse" /><linearGradient
       inkscape:collect="always"
       xlink:href="#linearGradient837"
       id="linearGradient853"
       gradientUnits="userSpaceOnUse"
       x1="5.3"
       y1="22.4"
       x2="38.3"
       y2="22.4"
       gradientTransform="matrix(0.7252962,0,0,0.7252962,5.9885429,6.2015364)" /><linearGradient
       inkscape:collect="always"
       xlink:href="#linearGradient837"
       id="linearGradient855"
       gradientUnits="userSpaceOnUse"
       x1="5.3"
       y1="22.4"
       x2="38.3"
       y2="22.4"
       gradientTransform="matrix(0.7252962,0,0,0.7252962,5.9885429,6.2015364)" /><linearGradient
       inkscape:collect="always"
       xlink:href="#linearGradient837"
       id="linearGradient857"
       gradientUnits="userSpaceOnUse"
       x1="5.3"
       y1="22.4"
       x2="38.3"
       y2="22.4"
       gradientTransform="matrix(0.7252962,0,0,0.7252962,5.9885429,6.2015364)" /><linearGradient
       inkscape:collect="always"
       xlink:href="#linearGradient837"
       id="linearGradient859"
       gradientUnits="userSpaceOnUse"
       x1="5.3"
       y1="22.4"
       x2="38.3"
       y2="22.4"
       gradientTransform="matrix(0.7252962,0,0,0.7252962,5.9885429,6.2015364)" /><linearGradient
       inkscape:collect="always"
       xlink:href="#linearGradient3000"
       id="linearGradient3002"
       x1="18.5"
       y1="24.548171"
       x2="32.5"
       y2="24.548171"
       gradientUnits="userSpaceOnUse"
       gradientTransform="matrix(0.7252962,0,0,0.7252962,5.9885429,6.1665981)" /><linearGradient
       inkscape:collect="always"
       xlink:href="#linearGradient3000"
       id="linearGradient3004"
       x1="18.5"
       y1="20.548171"
       x2="32.5"
       y2="20.548171"
       gradientUnits="userSpaceOnUse"
       gradientTransform="matrix(0.7252962,0,0,0.7252962,5.9885429,6.1665981)" /><linearGradient
       inkscape:collect="always"
       xlink:href="#linearGradient3000"
       id="linearGradient3006"
       x1="18.5"
       y1="16.548171"
       x2="32.5"
       y2="16.548171"
       gradientUnits="userSpaceOnUse"
       gradientTransform="matrix(0.7252962,0,0,0.7252962,5.9885429,6.1665981)" /><linearGradient
       inkscape:collect="always"
       xlink:href="#linearGradient3000"
       id="linearGradient3008"
       x1="4.8"
       y1="22.448171"
       x2="38.8"
       y2="22.448171"
       gradientUnits="userSpaceOnUse"
       gradientTransform="matrix(0.7252962,0,0,0.7252962,5.9885429,6.1665981)" /></defs><sodipodi:namedview
     id="namedview16"
     pagecolor="#505050"
     bordercolor="#eeeeee"
     borderopacity="1"
     inkscape:pageshadow="0"
     inkscape:pageopacity="0"
     inkscape:pagecheckerboard="0"
     showgrid="false"
     inkscape:zoom="8.44"
     inkscape:cx="49.940758"
     inkscape:cy="50.059242"
     inkscape:window-width="1920"
     inkscape:window-height="1016"
     inkscape:window-x="0"
     inkscape:window-y="27"
     inkscape:window-maximized="1"
     inkscape:current-layer="g10" /><g
     id="g12"
     style="stroke:url(#linearGradient839)"><g
       i:extraneous="self"
       id="g10"
       style="stroke:url(#linearGradient839)"><path
         fill="#000000"
         d="M 31.591499,7.9422472 H 12.008501 c -1.233003,0 -2.1758882,0.9428851 -2.1758882,2.1758888 v 24.660071 c 0,1.233003 0.9428852,2.175888 2.1758882,2.175888 h 19.582998 c 1.233003,0 2.175888,-0.942885 2.175888,-2.175888 V 10.118136 c 0,-1.1604741 -1.015414,-2.1758888 -2.175888,-2.1758888 z M 11.283205,10.118136 c 0,-0.4351779 0.362649,-0.7252964 0.725296,-0.7252964 h 0.725296 V 29.556074 c 0,0.435178 0.362649,0.725296 0.725297,0.725296 0.362648,0 0.725296,-0.290118 0.725296,-0.725296 V 9.3928396 h 17.407109 c 0.362647,0 0.725296,0.2901185 0.725296,0.7252964 v 22.484181 h -21.03359 z m 21.03359,24.660071 c 0,0.435177 -0.362649,0.725296 -0.725296,0.725296 H 12.008501 c -0.362647,0 -0.725296,-0.290119 -0.725296,-0.725296 v -0.725296 h 21.03359 z"
         id="path2"
         style="fill:url(#linearGradient3008);fill-opacity:1;stroke:url(#linearGradient859);stroke-width:0;stroke-miterlimit:0;stroke-dasharray:none;opacity:1" /><path
         fill="#000000"
         d="m 28.472725,18.89422 h -7.978258 c -0.435177,0 -0.725296,-0.290118 -0.725296,-0.725296 0,-0.435179 0.290119,-0.725297 0.725296,-0.725297 h 7.978258 c 0.435178,0 0.725297,0.290118 0.725297,0.725297 0,0.435178 -0.362649,0.725296 -0.725297,0.725296 z"
         id="path4"
         style="fill:url(#linearGradient3006);fill-opacity:1;stroke:url(#linearGradient857);stroke-width:0;stroke-miterlimit:0;stroke-dasharray:none;opacity:1" /><path
         fill="#000000"
         d="m 28.472725,21.795404 h -7.978258 c -0.435177,0 -0.725296,-0.290118 -0.725296,-0.725296 0,-0.435178 0.290119,-0.725296 0.725296,-0.725296 h 6.38591 1.592348 c 0.435178,0 0.725297,0.290118 0.725297,0.725296 0,0.435178 -0.362649,0.725296 -0.725297,0.725296 z"
         id="path6"
         style="fill:url(#linearGradient3004);fill-opacity:1;stroke:url(#linearGradient855);stroke-width:0;stroke-miterlimit:0;stroke-dasharray:none;opacity:1"
         sodipodi:nodetypes="sssscsss" /><path
         fill="#000000"
         d="m 28.472725,24.696589 h -7.978258 c -0.435177,0 -0.725296,-0.290118 -0.725296,-0.725296 0,-0.435177 0.290119,-0.725296 0.725296,-0.725296 h 7.978258 c 0.435178,0 0.725297,0.290119 0.725297,0.725296 0,0.435178 -0.362649,0.725296 -0.725297,0.725296 z"
         id="path8"
         style="fill:url(#linearGradient3002);fill-opacity:1;stroke:url(#linearGradient853);stroke-width:0;stroke-miterlimit:0;stroke-dasharray:none;opacity:1" /></g></g></svg>
