<?xml version="1.0" encoding="UTF-8" standalone="no"?>
<svg
   height="100px"
   width="100px"
   fill="#000000"
   version="1.1"
   x="0px"
   y="0px"
   viewBox="0 0 100 100"
   enable-background="new 0 0 100 100"
   xml:space="preserve"
   id="svg40"
   sodipodi:docname="learn.svg"
   inkscape:version="1.1 (ce6663b3b7, 2021-05-25)"
   xmlns:inkscape="http://www.inkscape.org/namespaces/inkscape"
   xmlns:sodipodi="http://sodipodi.sourceforge.net/DTD/sodipodi-0.dtd"
   xmlns:xlink="http://www.w3.org/1999/xlink"
   xmlns="http://www.w3.org/2000/svg"
   xmlns:svg="http://www.w3.org/2000/svg"><defs
     id="defs44"><linearGradient
       id="linearGradient887"
       inkscape:swatch="solid"><stop
         style="stop-color:#000000;stop-opacity:1;"
         offset="0"
         id="stop885" /></linearGradient><linearGradient
       id="linearGradient881"
       inkscape:swatch="solid"><stop
         style="stop-color:#000000;stop-opacity:1;"
         offset="0"
         id="stop879" /></linearGradient><linearGradient
       id="linearGradient875"
       inkscape:swatch="solid"><stop
         style="stop-color:#000000;stop-opacity:1;"
         offset="0"
         id="stop873" /></linearGradient><linearGradient
       id="linearGradient869"
       inkscape:swatch="solid"><stop
         style="stop-color:#000000;stop-opacity:1;"
         offset="0"
         id="stop867" /></linearGradient><linearGradient
       id="linearGradient863"
       inkscape:swatch="solid"><stop
         style="stop-color:#000000;stop-opacity:1;"
         offset="0"
         id="stop861" /></linearGradient><linearGradient
       inkscape:collect="always"
       xlink:href="#linearGradient875"
       id="linearGradient877"
       x1="1.1777344"
       y1="-4.2890625"
       x2="32.519531"
       y2="-4.2890625"
       gradientUnits="userSpaceOnUse" /><linearGradient
       inkscape:collect="always"
       xlink:href="#linearGradient881"
       id="linearGradient883"
       x1="0.48193359"
       y1="-5.793457"
       x2="229.88232"
       y2="-5.793457"
       gradientUnits="userSpaceOnUse" /><linearGradient
       inkscape:collect="always"
       xlink:href="#linearGradient887"
       id="linearGradient889"
       x1="1.1791992"
       y1="-5.793457"
       x2="299.98828"
       y2="-5.793457"
       gradientUnits="userSpaceOnUse" /></defs><sodipodi:namedview
     id="namedview42"
     pagecolor="#505050"
     bordercolor="#eeeeee"
     borderopacity="1"
     inkscape:pageshadow="0"
     inkscape:pageopacity="0"
     inkscape:pagecheckerboard="0"
     showgrid="false"
     inkscape:zoom="8.44"
     inkscape:cx="49.940758"
     inkscape:cy="50.059242"
     inkscape:window-width="1920"
     inkscape:window-height="1016"
     inkscape:window-x="0"
     inkscape:window-y="27"
     inkscape:window-maximized="1"
     inkscape:current-layer="svg40" /><text
     transform="matrix(1 0 0 1 129.5205 17.3042)"
     fill="#000000"
     font-family="'ArialMT'"
     font-size="21"
     id="text2"
     style="fill-opacity:1;fill:#c2d9ff">Created By CBi China Bridge </text><text
     transform="matrix(1 0 0 1 129.5205 42.5044)"
     fill="#000000"
     font-family="'ArialMT'"
     font-size="21"
     id="text4"
     style="fill-opacity:1;fill:#c2d9ff">from the Noun Project</text><text
     transform="matrix(1 0 0 1 44.0015 182.1387)"
     fill="#000000"
     font-family="'ArialMT'"
     font-size="12"
     id="text6"
     style="fill-opacity:1;fill:#c2d9ff">Learn</text><g
     id="g24"
     style="fill-opacity:1;fill:#c2d9ff"><g
       id="g16"
       style="fill-opacity:1;fill:#c2d9ff"><circle
         fill="#000000"
         stroke="#000000"
         stroke-width="2"
         stroke-linecap="round"
         stroke-linejoin="round"
         stroke-miterlimit="10"
         cx="58.796"
         cy="122.735"
         r="14.027"
         id="circle8"
         style="fill-opacity:1;fill:#c2d9ff" /><line
         fill="#000000"
         stroke="#000000"
         stroke-width="2"
         stroke-linecap="round"
         stroke-linejoin="round"
         stroke-miterlimit="10"
         x1="68.844"
         y1="132.52"
         x2="71.569"
         y2="135.247"
         id="line10"
         style="fill-opacity:1;fill:#c2d9ff" /><line
         fill="#000000"
         stroke="#000000"
         stroke-width="4"
         stroke-linecap="round"
         stroke-linejoin="round"
         stroke-miterlimit="10"
         x1="84.255"
         y1="147.99"
         x2="72.628"
         y2="136.362"
         id="line12"
         style="fill-opacity:1;fill:#c2d9ff" /><path
         fill="#000000"
         stroke="#000000"
         stroke-width="2"
         stroke-linecap="round"
         stroke-linejoin="round"
         stroke-miterlimit="10"
         d="    M58.795,112.551c5.625,0,10.185,4.56,10.185,10.185"
         id="path14"
         style="fill-opacity:1;fill:#c2d9ff" /></g><path
       fill="#000000"
       stroke="#000000"
       stroke-width="0.75"
       stroke-linecap="round"
       stroke-linejoin="round"
       stroke-miterlimit="10"
       d="   M52.123,150.11c-0.279-0.904-0.696-1.809-1.185-2.574l1.672-2.506c-0.559-0.557-0.904-0.835-1.044-0.975c0,0,0,0-0.14-0.139   c-0.139-0.139-0.488-0.418-1.044-0.976l-2.297,1.88c-0.834-0.486-1.739-0.766-2.646-0.975l-0.556-2.922l-1.53,0.068l-1.532,0.07   l-0.349,2.992c-0.904,0.279-1.811,0.695-2.574,1.184l-2.506-1.671l-1.461,1.601l-0.557,0.626l0.625,0.767l1.253,1.531   c-0.487,0.834-0.765,1.74-0.974,2.645h-0.069l-2.854,0.557c0,0.766,0.071,1.184,0.071,1.394c0,0,0,0.067,0,0.207   c0,0.21,0,0.627,0.067,1.392l2.855,0.279h0.069c0.277,0.904,0.694,1.811,1.182,2.574l-1.112,1.811l-0.557,0.836l0.625,0.557   l1.602,1.46l2.297-1.878c0.835,0.486,1.74,0.764,2.646,0.975l0.556,2.922l1.531-0.068l1.531-0.07l0.348-2.994   c0.905-0.277,1.811-0.695,2.575-1.182l2.507,1.67c0.557-0.557,0.834-0.905,0.974-1.044c0,0,0,0,0.139-0.14   c0.14-0.139,0.418-0.486,0.975-1.043l-1.879-2.297c0.486-0.836,0.766-1.74,0.975-2.646l2.923-0.558c0-0.763-0.07-1.182-0.07-1.391   c0,0,0-0.07,0-0.209c0-0.209,0-0.626-0.069-1.393L52.123,150.11z M43.911,156.861L43.911,156.861   c-2.438,0.139-4.525-1.809-4.664-4.245c-0.14-2.437,1.811-4.523,4.246-4.662l0,0c2.436-0.14,4.523,1.809,4.663,4.244   C48.295,154.704,46.417,156.793,43.911,156.861z"
       id="path18"
       style="fill-opacity:1;fill:#c2d9ff" /><path
       fill="#000000"
       stroke="#000000"
       stroke-width="0.75"
       stroke-linecap="round"
       stroke-linejoin="round"
       stroke-miterlimit="10"
       d="   M47.946,113.851c-0.208-0.209-2.088-1.741-2.992-2.576l-3.271,2.437c-1.113-0.696-2.365-1.183-3.619-1.531l-0.627-4.106h-2.086   h-2.089l-0.627,4.106c-1.321,0.279-2.505,0.835-3.618,1.531l-3.341-2.437l-2.994,2.993l2.438,3.341   c-0.695,1.114-1.185,2.367-1.531,3.619l-4.106,0.627c0,5.22,0-0.975,0,4.245l4.106,0.626c0.278,1.322,0.836,2.506,1.531,3.619   l-2.438,3.342c3.689,3.688-0.694-0.697,2.994,2.991l3.341-2.436c1.113,0.696,2.367,1.183,3.618,1.532l0.627,4.105h2.089h2.086   l0.627-4.105c1.322-0.279,2.506-0.836,3.619-1.532l3.342,2.436c3.689-3.688,0,0,3.689-3.688 M35.28,130.137   c-3.411,0-6.195-2.785-6.195-6.195s2.784-6.194,6.195-6.194c3.41,0,6.193,2.784,6.193,6.194S38.69,130.137,35.28,130.137z"
       id="path20"
       style="fill-opacity:1;fill:#c2d9ff" /><path
       fill="#000000"
       stroke="#000000"
       stroke-width="2"
       stroke-linecap="round"
       stroke-linejoin="round"
       stroke-miterlimit="10"
       d="   M47.878,131.181c0.486-1.044,0.836-2.158,1.113-3.271l1.947-0.279l3.76-0.556c0-1.531,0-2.298,0-2.715c0-0.347,0-0.418,0-0.418   c0-0.417,0-1.184,0-2.714l-3.76-0.557l-1.878-0.279c-0.418-1.809-1.114-3.479-2.088-5.012"
       id="path22"
       style="fill-opacity:1;fill:#c2d9ff" /></g><g
     id="g38"
     style="fill-opacity:1;fill:#c2d9ff"><g
       id="g28"
       style="fill-opacity:1;fill:#c2d9ff"><path
         fill="#000000"
         d="M39.977,78.249c-0.18,0-0.335-0.128-0.368-0.306l-0.511-2.684c-0.675-0.165-1.49-0.409-2.282-0.831    l-2.1,1.718c-0.145,0.115-0.354,0.111-0.49-0.014l-2.223-2.014c-0.14-0.125-0.167-0.332-0.063-0.488l0.557-0.836l0.984-1.602    c-0.408-0.677-0.764-1.449-1.021-2.219l-2.682-0.262c-0.18-0.018-0.321-0.16-0.338-0.341c-0.068-0.781-0.068-1.216-0.068-1.425    V66.74c0-0.064-0.008-0.15-0.018-0.264c-0.022-0.249-0.054-0.612-0.054-1.13c0-0.179,0.127-0.333,0.303-0.368l2.69-0.525    c0.165-0.672,0.408-1.482,0.827-2.268l-1.717-2.102c-0.116-0.143-0.111-0.348,0.011-0.485l2.021-2.23    c0.126-0.138,0.332-0.163,0.485-0.06l2.306,1.537c0.675-0.406,1.449-0.762,2.222-1.02l0.321-2.754    c0.021-0.183,0.172-0.322,0.355-0.331l3.062-0.139c0.15-0.009,0.351,0.122,0.385,0.305l0.511,2.685    c0.674,0.164,1.489,0.407,2.282,0.831l2.1-1.719c0.148-0.123,0.366-0.111,0.503,0.025c0.362,0.364,0.636,0.606,0.818,0.769    c0.101,0.09,0.176,0.156,0.226,0.207l0.139,0.139c0.043,0.043,0.108,0.1,0.194,0.176c0.188,0.168,0.471,0.42,0.85,0.797    c0.127,0.127,0.146,0.325,0.047,0.475l-1.537,2.305c0.407,0.678,0.764,1.451,1.021,2.223l2.752,0.32    c0.177,0.02,0.314,0.162,0.33,0.338c0.071,0.783,0.071,1.219,0.071,1.428v0.209c0,0.062,0.008,0.148,0.018,0.262    c0.021,0.249,0.053,0.612,0.053,1.128c0,0.181-0.128,0.335-0.305,0.368l-2.685,0.512c-0.227,0.92-0.489,1.643-0.831,2.283    l1.717,2.1c0.122,0.148,0.111,0.366-0.024,0.502c-0.364,0.364-0.606,0.637-0.769,0.818c-0.089,0.101-0.156,0.176-0.206,0.226    l-0.139,0.139c-0.045,0.044-0.103,0.11-0.18,0.198c-0.168,0.189-0.419,0.471-0.795,0.846c-0.126,0.129-0.323,0.147-0.473,0.047    l-2.307-1.535c-0.678,0.407-1.452,0.762-2.223,1.02l-0.32,2.753c-0.021,0.183-0.171,0.323-0.354,0.331l-3.063,0.139    C39.987,78.249,39.982,78.249,39.977,78.249z M36.775,73.602c0.064,0,0.13,0.018,0.188,0.051c0.87,0.508,1.815,0.766,2.542,0.934    c0.145,0.034,0.256,0.15,0.283,0.296l0.495,2.603l2.419-0.109l0.312-2.677c0.017-0.147,0.12-0.271,0.262-0.315    c0.865-0.266,1.747-0.67,2.484-1.14c0.125-0.079,0.284-0.077,0.409,0.005l2.249,1.498c0.245-0.254,0.421-0.453,0.548-0.596    c0.092-0.104,0.16-0.18,0.211-0.23l0.138-0.139c0.044-0.043,0.101-0.107,0.178-0.193c0.13-0.146,0.31-0.349,0.56-0.607    l-1.666-2.037c-0.1-0.121-0.112-0.29-0.034-0.426c0.397-0.684,0.686-1.467,0.934-2.541c0.033-0.145,0.149-0.256,0.295-0.284    l2.614-0.499c-0.009-0.326-0.03-0.572-0.046-0.754c-0.012-0.141-0.021-0.248-0.021-0.326v-0.209c0-0.17,0-0.496-0.043-1.057    l-2.687-0.312c-0.147-0.017-0.271-0.12-0.315-0.263c-0.267-0.865-0.673-1.747-1.143-2.482c-0.08-0.126-0.078-0.287,0.005-0.41    l1.499-2.248c-0.257-0.247-0.456-0.425-0.6-0.553c-0.1-0.089-0.175-0.156-0.225-0.205l-0.14-0.14    c-0.044-0.044-0.108-0.101-0.194-0.177c-0.146-0.131-0.349-0.311-0.608-0.561l-2.036,1.666c-0.121,0.1-0.29,0.112-0.427,0.034    c-0.68-0.397-1.463-0.685-2.54-0.933c-0.146-0.033-0.257-0.149-0.284-0.296l-0.495-2.604l-2.419,0.11l-0.312,2.676    c-0.017,0.147-0.119,0.271-0.262,0.314c-0.868,0.268-1.75,0.674-2.482,1.141c-0.125,0.08-0.286,0.08-0.41-0.004l-2.238-1.492    l-1.585,1.747l1.676,2.049c0.1,0.122,0.112,0.292,0.034,0.427c-0.507,0.867-0.765,1.813-0.933,2.54    c-0.039,0.17-0.19,0.29-0.365,0.29l-2.545,0.491c0.009,0.329,0.03,0.575,0.047,0.757c0.012,0.141,0.021,0.248,0.021,0.328v0.207    c0,0.175,0,0.496,0.041,1.049l2.543,0.248c0.151,0.016,0.348,0.119,0.392,0.264c0.265,0.864,0.67,1.746,1.14,2.482    c0.077,0.121,0.078,0.275,0.003,0.398l-1.495,2.387l1.747,1.585l2.046-1.674C36.606,73.631,36.69,73.602,36.775,73.602z     M40.985,71.296c-2.541,0-4.646-2.022-4.793-4.605c-0.073-1.274,0.372-2.507,1.255-3.468c0.875-0.953,2.062-1.518,3.344-1.591    c2.689-0.14,4.906,1.926,5.059,4.598c0.074,1.33-0.37,2.589-1.251,3.545c-0.866,0.941-2.059,1.479-3.358,1.515    C41.163,71.293,41.073,71.296,40.985,71.296z M41.058,62.375c-0.074,0-0.148,0.002-0.224,0.006    c-1.086,0.062-2.092,0.541-2.834,1.349c-0.744,0.812-1.12,1.847-1.06,2.918c0.127,2.226,2.084,4.028,4.269,3.892    c1.106-0.029,2.109-0.481,2.838-1.272c0.742-0.806,1.116-1.87,1.055-2.995C44.978,64.123,43.164,62.375,41.058,62.375z"
         id="path26"
         style="fill-opacity:1;fill:#c2d9ff" /></g><g
       id="g36"
       style="fill-opacity:1;fill:#c2d9ff"><path
         fill="#000000"
         d="M82.988,60.629L71.361,49.002c-0.511-0.512-1.227-0.682-1.881-0.524l-1.946-1.948    c2.244-2.625,3.608-6.024,3.608-9.741c0-8.286-6.742-15.028-15.029-15.028c-4.534,0-8.596,2.027-11.354,5.214    c-0.048-0.04-0.092-0.077-0.143-0.12c-0.656-0.553-1.555-1.309-2.089-1.802c-0.134-0.121-0.334-0.134-0.479-0.025l-3.069,2.285    c-0.932-0.552-2.027-1.014-3.264-1.374l-0.59-3.868c-0.028-0.183-0.186-0.318-0.371-0.318h-4.175    c-0.186,0-0.343,0.136-0.371,0.318l-0.588,3.854c-1.077,0.259-2.151,0.716-3.269,1.39l-3.138-2.289    c-0.148-0.107-0.355-0.092-0.485,0.038l-2.994,2.993c-0.131,0.131-0.147,0.337-0.038,0.486l2.29,3.139    c-0.556,0.938-1.018,2.035-1.376,3.266l-3.868,0.591c-0.183,0.028-0.318,0.186-0.318,0.37v4.246c0,0.186,0.136,0.343,0.318,0.371    l3.854,0.588c0.258,1.074,0.715,2.148,1.39,3.268l-2.289,3.139c-0.109,0.149-0.093,0.355,0.038,0.486    c0.65,0.65,1.074,1.074,1.36,1.338c0.014,0.02,0.027,0.038,0.041,0.055L21.134,49.4c0.004,0.004,0.021,0.021,0.058,0.057    c0.011,0.012,0.021,0.021,0.029,0.031l0.111,0.11v-0.001c0.214,0.214,0.631,0.631,1.397,1.398    c0.132,0.131,0.337,0.146,0.486,0.037l3.139-2.288c0.93,0.552,2.026,1.013,3.266,1.376l0.59,3.868    c0.028,0.183,0.186,0.318,0.371,0.318h4.175c0.186,0,0.343-0.136,0.371-0.318l0.588-3.853c1.076-0.258,2.15-0.715,3.27-1.391    l3.139,2.287c0.15,0.11,0.355,0.094,0.485-0.037l3.254-3.254c2.688,2.518,6.287,4.071,10.251,4.071    c3.851,0,7.356-1.468,10.019-3.857l1.903,1.904c-0.196,0.677-0.036,1.436,0.498,1.97L80.16,63.457    c0.391,0.391,0.902,0.586,1.414,0.586s1.023-0.195,1.414-0.586C83.77,62.676,83.77,61.41,82.988,60.629z M45.405,34.67    c0.093,0.4,0.421,0.703,0.828,0.764l4.784,0.709v4.121l-4.849,0.708c-0.402,0.058-0.73,0.354-0.829,0.748    c-0.146,0.585-0.301,1.12-0.468,1.616c-1.127-1.926-1.784-4.159-1.784-6.548c0-1.909,0.423-3.72,1.164-5.355    C44.75,32.456,45.144,33.536,45.405,34.67z M42.306,50.238l-3.083-2.246c-0.123-0.091-0.289-0.096-0.42-0.016    c-1.21,0.758-2.354,1.242-3.497,1.484c-0.153,0.031-0.27,0.155-0.294,0.31l-0.578,3.787h-3.53l-0.578-3.787    c-0.022-0.146-0.128-0.265-0.271-0.305c-1.365-0.381-2.55-0.882-3.52-1.489c-0.13-0.08-0.296-0.075-0.42,0.016l-3.082,2.246    c-0.527-0.527-0.886-0.883-1.138-1.115c-0.013-0.018-0.025-0.034-0.038-0.051l0.005-0.004c-0.005-0.005-0.025-0.025-0.068-0.068    c-0.016-0.016-0.029-0.029-0.042-0.042l-0.087-0.088l-0.001,0.001c-0.191-0.191-0.547-0.547-1.171-1.17l2.248-3.082    c0.091-0.125,0.097-0.291,0.016-0.42c-0.758-1.212-1.242-2.355-1.482-3.498c-0.032-0.152-0.156-0.27-0.311-0.293l-3.788-0.578    v-3.602l3.788-0.578c0.146-0.021,0.266-0.127,0.305-0.27c0.375-1.355,0.876-2.54,1.488-3.521c0.081-0.13,0.075-0.296-0.016-0.42    l-2.248-3.081l2.54-2.539l3.082,2.247c0.124,0.091,0.29,0.096,0.42,0.015c1.207-0.755,2.352-1.24,3.496-1.482    c0.153-0.032,0.27-0.155,0.294-0.31l0.578-3.788h3.53l0.578,3.788c0.022,0.146,0.129,0.265,0.271,0.305    c1.362,0.378,2.547,0.879,3.521,1.487c0.132,0.081,0.3,0.076,0.423-0.017l3.024-2.253c0.548,0.491,1.309,1.132,1.885,1.616    c0.054,0.045,0.1,0.084,0.149,0.126c-1.995,2.551-3.196,5.752-3.196,9.234c0,4.052,1.619,7.728,4.236,10.433L42.306,50.238z     M46.258,45.279c0.314-0.727,0.601-1.516,0.852-2.422l5.055-0.741c0.49-0.072,0.854-0.493,0.854-0.989V35.28    c0-0.495-0.363-0.917-0.854-0.989l-4.978-0.738c-0.402-1.48-1.004-2.877-1.771-4.178c2.354-3.389,6.269-5.615,10.698-5.615    c7.185,0,13.029,5.845,13.029,13.028c0,7.183-5.845,13.025-13.029,13.025C52.175,49.813,48.647,48.05,46.258,45.279z"
         id="path30"
         style="fill-opacity:1;fill:#c2d9ff" /><path
         fill="#000000"
         d="M66.299,37.787c0.553,0,1-0.447,1-1c0-6.167-5.018-11.184-11.185-11.184c-0.553,0-1,0.447-1,1    c0,0.552,0.447,1,1,1c5.064,0,9.185,4.12,9.185,9.184C65.299,37.34,65.746,37.787,66.299,37.787z"
         id="path32"
         style="fill-opacity:1;fill:#c2d9ff" /><path
         fill="#000000"
         d="M32.6,31.425c-3.623,0-6.57,2.946-6.57,6.569s2.947,6.57,6.57,6.57c3.622,0,6.568-2.947,6.568-6.57    S36.222,31.425,32.6,31.425z M32.6,43.814c-3.209,0-5.82-2.611-5.82-5.82s2.611-5.819,5.82-5.819c3.208,0,5.818,2.61,5.818,5.819    S35.808,43.814,32.6,43.814z"
         id="path34"
         style="fill-opacity:1;fill:#c2d9ff" /></g></g></svg>
