<?xml version="1.0" encoding="UTF-8" standalone="no"?>
<svg
   viewBox="0 -0.5 16 16"
   shape-rendering="crispEdges"
   version="1.1"
   id="svg295"
   sodipodi:docname="homeicon.svg"
   inkscape:version="1.1 (ce6663b3b7, 2021-05-25)"
   xmlns:inkscape="http://www.inkscape.org/namespaces/inkscape"
   xmlns:sodipodi="http://sodipodi.sourceforge.net/DTD/sodipodi-0.dtd"
   xmlns="http://www.w3.org/2000/svg"
   xmlns:svg="http://www.w3.org/2000/svg">
  <defs
     id="defs299" />
  <sodipodi:namedview
     id="namedview297"
     pagecolor="#505050"
     bordercolor="#eeeeee"
     borderopacity="1"
     inkscape:pageshadow="0"
     inkscape:pageopacity="0"
     inkscape:pagecheckerboard="0"
     showgrid="false"
     inkscape:zoom="52.75"
     inkscape:cx="7.9905213"
     inkscape:cy="4.9668246"
     inkscape:window-width="1920"
     inkscape:window-height="1043"
     inkscape:window-x="1920"
     inkscape:window-y="0"
     inkscape:window-maximized="1"
     inkscape:current-layer="svg295" />
  <metadata
     id="metadata277">Made with Pixels to Svg https://codepen.io/shshaw/pen/XbxvNj</metadata>
  <path
     stroke="#edb88f"
     d="m 8,0 h 4 m 2,0 h 2 M 8,1 h 4 m 2,0 h 2"
     id="path279"
     sodipodi:nodetypes="cccccccc" />
  <path
     stroke="#fc9f95"
     d="m 6,2 h 2 m 4,0 h 4 M 6,3 h 2 m 4,0 h 4"
     id="path281"
     sodipodi:nodetypes="cccccccc" />
  <path
     stroke="#f77c88"
     d="M2 4h2M6 4h2M10 4h6M2 5h2M6 5h2M10 5h6"
     id="path283" />
  <path
     stroke="#f25192"
     d="M4 6h2M8 6h8M4 7h2M8 7h8"
     id="path285" />
  <path
     stroke="#d34ca3"
     d="M2 8h2M6 8h10M2 9h2M6 9h10"
     id="path287" />
  <path
     stroke="#9a50a5"
     d="M0 10h2M4 10h12M0 11h2M4 11h12"
     id="path289" />
  <path
     stroke="#59569e"
     d="M2 12h14M2 13h14"
     id="path291" />
  <path
     stroke="#39477f"
     d="M0 14h16M0 15h16"
     id="path293" />
</svg>
